<svg width="100%" height="100%" viewBox="0 0 1053 482.142" fill="none" xmlns="http://www.w3.org/2000/svg">
<g id="Logomark">
<rect id="Rectangle 23" y="302" width="15" height="15" fill="var(--fill-0, black)"/>
<rect id="Rectangle 24" x="15" y="287" width="16" height="15" fill="var(--fill-0, black)"/>
<g id="ur digital oracle">
<path id="Vector" d="M673.137 462.489H648.547V457.585H643.642V452.68H638.737V423.185H643.642V418.28H648.547V413.375H673.137V418.28H678.042V423.185H682.947V440.385H648.547V447.775H653.451V452.68H668.199V447.775H682.947V452.68H678.042V457.585H673.137V462.489ZM648.547 433.028H673.137V428.089H668.199V423.185H653.451V428.089H648.547V433.028Z" fill="var(--fill-0, black)"/>
<path id="Vector_2" d="M628.928 462.489H619.118V393.689H628.928V462.489Z" fill="var(--fill-0, black)"/>
<path id="Vector_3" d="M599.5 462.489H574.909V457.585H570.004V452.68H565.1V423.185H570.004V418.28H574.909V413.375H599.5V418.28H604.404V423.185H609.309V433.028H599.5V428.089H594.561V423.185H579.814V428.089H574.909V447.775H579.814V452.68H594.561V447.775H599.5V442.837H609.309V452.68H604.404V457.585H599.5V462.489Z" fill="var(--fill-0, black)"/>
<path id="Vector_4" d="M540.543 462.489H520.89V457.585H515.985V452.68H511.081V442.837H515.985V437.932H525.795V433.028H545.481V428.089H540.543V423.185H525.795V428.089H511.081V423.185H515.985V418.28H520.89V413.375H545.481V418.28H550.385V423.185H555.29V462.489H545.481V457.585H540.543V462.489ZM523.343 452.68H540.543V447.775H545.481V437.932H540.543V442.837H523.343V452.68Z" fill="var(--fill-0, black)"/>
<path id="Vector_5" d="M488.909 462.489H479.099V413.375H488.909V418.28H493.814V413.375H506.109V423.185H493.814V428.089H488.909V462.489Z" fill="var(--fill-0, black)"/>
<path id="Vector_6" d="M459.481 462.489H434.89V457.585H429.985V452.68H425.081V423.185H429.985V418.28H434.89V413.375H459.481V418.28H464.385V423.185H469.29V452.68H464.385V457.585H459.481V462.489ZM439.795 452.68H454.542V447.775H459.481V428.089H454.542V423.185H439.795V428.089H434.89V447.775H439.795V452.68Z" fill="var(--fill-0, black)"/>
<path id="Vector_7" d="M395.653 462.489H385.843V393.689H395.653V462.489Z" fill="var(--fill-0, black)"/>
<path id="Vector_8" d="M361.286 462.489H341.634V457.585H336.729V452.68H331.824V442.837H336.729V437.932H346.538V433.028H366.224V428.089H361.286V423.185H346.538V428.089H331.824V423.185H336.729V418.28H341.634V413.375H366.224V418.28H371.129V423.185H376.034V462.489H366.224V457.585H361.286V462.489ZM344.086 452.68H361.286V447.775H366.224V437.932H361.286V442.837H344.086V452.68Z" fill="var(--fill-0, black)"/>
<path id="Vector_9" d="M324.4 462.489H309.652V457.585H304.748V420.732H297.391V413.375H304.748V398.627H314.591V413.375H324.4V420.732H314.591V452.68H324.4V462.489Z" fill="var(--fill-0, black)"/>
<path id="Vector_10" d="M290.034 405.985H280.224V396.175H290.034V405.985ZM290.034 462.489H280.224V413.375H290.034V462.489Z" fill="var(--fill-0, black)"/>
<path id="Vector_11" d="M260.606 482.142H236.015V477.203H231.11V472.299H226.206V467.394H240.92V472.299H255.667V467.394H260.606V457.585H255.667V462.489H236.015V457.585H231.11V452.68H226.206V423.185H231.11V418.28H236.015V413.375H255.667V418.28H260.606V413.375H270.415V472.299H265.51V477.203H260.606V482.142ZM240.92 452.68H255.667V447.775H260.606V428.089H255.667V423.185H240.92V428.089H236.015V447.775H240.92V452.68Z" fill="var(--fill-0, black)"/>
<path id="Vector_12" d="M216.396 405.985H206.587V396.175H216.396V405.985ZM216.396 462.489H206.587V413.375H216.396V462.489Z" fill="var(--fill-0, black)"/>
<path id="Vector_13" d="M182.03 462.489H162.377V457.585H157.473V452.68H152.568V423.185H157.473V418.28H162.377V413.375H182.03V418.28H186.968V393.689H196.777V462.489H186.968V457.585H182.03V462.489ZM167.282 452.68H182.03V447.775H186.968V428.089H182.03V423.185H167.282V428.089H162.377V447.775H167.282V452.68Z" fill="var(--fill-0, black)"/>
<path id="Vector_14" d="M108.359 462.489H98.5492V413.375H108.359V418.28H113.263V413.375H125.559V423.185H113.263V428.089H108.359V462.489Z" fill="var(--fill-0, black)"/>
<path id="Vector_15" d="M73.9586 462.489H56.7586V457.585H51.8539V452.68H46.9492V413.375H56.7586V447.775H61.6632V452.68H73.9586V447.775H78.8633V413.375H88.7062V462.489H78.8633V457.585H73.9586V462.489Z" fill="var(--fill-0, black)"/>
</g>
<path id="N" d="M148 367H50V347.535H89.1282V73.5849H50V54H148V93.1698H167.624V132.22H187.128V171.39H206.752V210.56H226.376V249.61H246V288.78H265.624V327.95H285.248V73.5849H246V54H344V73.5849H304.752V367H246V327.95H226.376V288.78H206.752V249.61H187.128V210.56H167.624V171.39H148V132.22H128.376V93.1698H108.752V347.535H148V367Z" fill="var(--fill-0, black)"/>
<path id="a" d="M556 367H506.94V342.668H458.03V318.186H482.41V220.259H458.03V195.927H482.41V146.963H458.03V122.482H384.44V146.963H359.91V171.445H311V146.963H335.38V122.482H359.91V98H482.41V122.482H506.94V146.963H531.47V347.892H556V367ZM458.03 244.741H384.44V220.259H458.03V244.741ZM458.03 367H359.91V342.668H335.38V318.186H311V269.223H335.38V244.741H384.44V269.223H359.91V318.186H384.44V342.668H458.03V367Z" fill="var(--fill-0, black)"/>
<path id="a_2" d="M1053 367H1003.94V342.668H955.03V318.186H979.41V220.259H955.03V195.927H979.41V146.963H955.03V122.482H881.44V146.963H856.91V171.445H808V146.963H832.38V122.482H856.91V98H979.41V122.482H1003.94V146.963H1028.47V342.668H1053V367ZM955.03 244.741H881.44V220.259H955.03V244.741ZM955.03 367H856.91V342.668H832.38V318.186H808V269.223H832.38V244.741H881.44V269.223H856.91V318.186H881.44V342.668H955.03V367Z" fill="var(--fill-0, black)"/>
<path id="R" d="M672.224 367H555L555 347.893H593.995V73.5849H555V54H750.333V73.5849H769.891V93.1698H789.448V190.975H769.891V210.56H750.333V230.145H711.219V249.61H730.776V269.195H750.333V288.78H769.891V308.365H789.448V327.95H808.886V347.535H848V367H769.891V347.535H750.333V327.95H730.776V308.365H711.219V288.78H691.662V269.195H672.224V249.61H652.667V230.145H633.109V347.893H672.224V367ZM633.109 210.56H730.776V190.975H750.333V93.1698H730.776V73.5849H633.109V210.56Z" fill="var(--fill-0, black)"/>
<rect id="Rectangle 25" x="409" y="54" width="15" height="15" fill="var(--fill-0, black)"/>
<rect id="Rectangle 26" x="508" y="27" width="16" height="15" fill="var(--fill-0, black)"/>
<rect id="Rectangle 27" x="673" y="27" width="15" height="15" fill="var(--fill-0, black)"/>
<rect id="Rectangle 28" x="462" width="16" height="15" fill="var(--fill-0, black)"/>
<rect id="Rectangle 29" x="566" y="153" width="15" height="15" fill="var(--fill-0, black)"/>
<rect id="Rectangle 30" x="524" y="61" width="11" height="73" fill="var(--fill-0, black)"/>
<rect id="Rectangle 31" x="508" y="76" width="42" height="42" fill="var(--fill-0, black)"/>
<rect id="Rectangle 32" x="493" y="103" width="11" height="73" transform="rotate(-90 493 103)" fill="var(--fill-0, black)"/>
<rect id="Rectangle 33" x="493" y="103" width="11" height="73" transform="rotate(-90 493 103)" fill="var(--fill-0, black)"/>
<rect id="Rectangle 34" x="417" y="275" width="7" height="46" fill="var(--fill-0, black)"/>
<path id="Rectangle 35" d="M398 302L398 294L443 294L443 302L398 302Z" fill="var(--fill-0, black)"/>
</g>
</svg>
